<svg width="23" height="24" viewBox="0 0 23 24" fill="none" xmlns="http://www.w3.org/2000/svg">
<path d="M12.3506 7.94584C14.9478 7.94584 16.0557 9.05357 16.0557 11.6506H18.5257C18.5257 7.66797 16.3335 5.47596 12.3506 5.47596V7.94584ZM16.5768 14.6676C16.3395 14.4519 16.0277 14.3369 15.7071 14.3468C15.3866 14.3567 15.0825 14.4908 14.8589 14.7207L11.9035 17.7599C11.1921 17.624 9.76198 17.1782 8.28983 15.7099C6.81768 14.2366 6.37184 12.8028 6.23969 12.0965L9.27662 9.14002C9.50684 8.91665 9.64112 8.61248 9.65103 8.29187C9.66094 7.97127 9.54571 7.65938 9.32972 7.42222L4.76631 2.40468C4.55023 2.16678 4.24992 2.02247 3.92915 2.00241C3.60838 1.98235 3.29243 2.08811 3.04839 2.29724L0.368386 4.59545C0.154864 4.80974 0.0274194 5.09492 0.0102284 5.39693C-0.00829694 5.70566 -0.361514 13.019 5.30972 18.6922C10.2572 23.6382 16.4546 24 18.1614 24C18.4109 24 18.564 23.9926 18.6048 23.9901C18.9067 23.9732 19.1918 23.8452 19.4051 23.6308L21.7022 20.9497C21.9115 20.7058 22.0175 20.39 21.9976 20.0693C21.9778 19.7485 21.8337 19.4481 21.596 19.2319L16.5768 14.6676Z" fill="#232323"/>
<path d="M21.01 8.999H23.01C23.01 3.869 19.137 0 14 0V2C18.062 2 21.01 4.943 21.01 8.999Z" fill="#232323"/>
</svg>
