<svg width="49" height="49" viewBox="0 0 49 49" fill="none" xmlns="http://www.w3.org/2000/svg">
<path d="M24.0444 44.1854C35.0326 44.1854 43.9404 35.2287 43.9404 24.1801C43.9404 13.1315 35.0326 4.1748 24.0444 4.1748C13.0562 4.1748 4.14844 13.1315 4.14844 24.1801C4.14844 35.2287 13.0562 44.1854 24.0444 44.1854Z" fill="url(#paint0_linear_1_6764)"/>
<path d="M47.7886 28.4922C47.6954 27.8774 47.4859 27.2859 47.1712 26.7495C46.8079 26.1419 46.3192 25.6789 46.1263 24.9715C45.9422 24.3012 45.9956 23.5878 46.2774 22.9523C46.5539 22.3318 47.0683 21.8624 47.3609 21.2483C47.6477 20.6357 47.8076 19.9715 47.8309 19.2955C47.8542 18.6196 47.7405 17.9459 47.4965 17.3151C47.2526 16.6842 46.8835 16.1093 46.4115 15.6248C45.9396 15.1404 45.3744 14.7565 44.7501 14.4962C43.5541 13.9786 42.6731 13.0076 42.6763 11.6314C42.6763 11.0302 42.8274 10.4579 42.7728 9.85341C42.7119 9.12459 42.4924 8.4179 42.1297 7.78279C41.7807 7.18466 41.3102 6.66624 40.7487 6.26089C40.1872 5.85554 39.5471 5.57224 38.8695 5.42922C37.5641 5.17843 36.2619 5.75075 35.0433 5.04661C33.8247 4.34247 33.664 2.89561 32.7766 1.88602C31.9185 0.921438 30.7145 0.334427 29.4262 0.252549C28.1378 0.170671 26.8691 0.600547 25.8959 1.44875C24.6323 2.44226 23.1308 2.14645 21.9412 1.23975C21.3974 0.826804 20.7731 0.53247 20.1085 0.375741C19.4439 0.219012 18.7538 0.203376 18.0829 0.32984C16.7965 0.573806 15.6597 1.31859 14.9223 2.40046C14.6007 2.87953 14.4368 3.43898 14.1538 3.94378C13.8073 4.55212 13.2574 5.01888 12.6009 5.26203C12.0632 5.43929 11.4906 5.48342 10.9321 5.39064C10.2314 5.29165 9.51761 5.34431 8.839 5.54506C8.16039 5.74581 7.5328 6.08997 6.99871 6.55426C6.46462 7.01854 6.03647 7.59211 5.74323 8.23618C5.45 8.88025 5.29851 9.57979 5.29903 10.2875C5.29903 10.9562 5.49515 11.5736 5.35368 12.2488C5.22172 12.8672 4.9003 13.4291 4.43412 13.8564C3.93576 14.3098 3.30878 14.4577 2.73647 14.7792C2.16392 15.1146 1.66371 15.5604 1.26489 16.0907C0.866072 16.6211 0.576592 17.2254 0.413263 17.8685C0.249934 18.5116 0.216011 19.1808 0.313464 19.8372C0.410916 20.4936 0.637803 21.124 0.980946 21.692C1.34105 22.2675 1.78154 22.7016 1.96802 23.38C2.17234 24.1306 2.07904 24.9311 1.70759 25.6146C1.42143 26.1419 0.990585 26.5566 0.743011 27.1032C0.441316 27.7385 0.273852 28.4291 0.251078 29.132C0.223989 30.4418 0.708406 31.7105 1.60149 32.6688C2.50176 33.6334 3.91646 33.7909 4.74278 34.8005C5.72987 36.003 5.19613 37.2216 5.34403 38.5977C5.41794 39.3002 5.64053 39.9789 5.99698 40.5887C6.35344 41.1985 6.83561 41.7254 7.41145 42.1345C8.56251 42.9576 9.80359 43.0669 11.1636 42.9383C11.825 42.8592 12.4942 42.9982 13.0693 43.3343C13.6444 43.6703 14.0941 44.1849 14.35 44.8C14.8901 46.0185 15.6135 47.0313 16.8482 47.6197C17.4461 47.9078 18.0958 48.0725 18.7587 48.1039C19.4216 48.1354 20.084 48.0331 20.7065 47.803C22.0087 47.3014 22.8639 46.0989 24.3944 46.2918C25.7448 46.459 26.6193 47.6712 27.9312 47.9831C28.8861 48.2161 29.889 48.1568 30.8098 47.8128C31.7306 47.4688 32.5267 46.856 33.0949 46.0539C33.4775 45.517 33.635 44.8868 33.9791 44.3338C34.7764 43.0477 36.0368 42.8837 37.4033 43.0187C38.0871 43.08 38.7761 42.9979 39.4263 42.7777C40.0765 42.5574 40.6736 42.2038 41.1793 41.7396C41.685 41.2753 42.0882 40.7106 42.3632 40.0816C42.6381 39.4525 42.7787 38.773 42.776 38.0865C42.776 37.4435 42.5863 36.8647 42.6988 36.2313C42.8208 35.5328 43.1837 34.8991 43.7245 34.4404C44.2068 34.0321 44.7984 33.8938 45.3321 33.5916C45.944 33.2433 46.4728 32.766 46.8819 32.193C47.662 31.128 47.9881 29.7972 47.7886 28.4922ZM24.0439 44.1826C20.0822 44.2062 16.2026 43.0529 12.897 40.8689C9.59149 38.6849 7.00886 35.5686 5.47655 31.9151C3.94423 28.2616 3.53123 24.2353 4.28991 20.3468C5.04859 16.4582 6.94479 12.8825 9.73811 10.0729C12.5314 7.26336 16.0961 5.34645 19.9801 4.56521C23.8642 3.78398 27.8928 4.17359 31.5552 5.68468C35.2175 7.19577 38.3488 9.76027 40.5519 13.0531C42.755 16.3459 43.9308 20.2187 43.9303 24.1806C43.9396 26.8003 43.4324 29.3962 42.4378 31.8198C41.4432 34.2434 39.9806 36.4471 38.1337 38.3051C36.2868 40.1631 34.0917 41.6388 31.6741 42.6478C29.2565 43.6569 26.6637 44.1795 24.0439 44.1859V44.1826Z" fill="url(#paint1_linear_1_6764)"/>
<path d="M24.0444 42.2434C20.4674 42.2645 16.9646 41.2229 13.9802 39.2509C10.9958 37.2789 8.66409 34.4652 7.28064 31.1665C5.89719 27.8678 5.5243 24.2326 6.20925 20.7217C6.8942 17.2108 8.60614 13.9823 11.1281 11.4455C13.65 8.90867 16.8683 7.17774 20.3751 6.47212C23.8819 5.7665 27.5193 6.11796 30.8261 7.48195C34.1329 8.84594 36.9603 11.161 38.9498 14.1338C40.9394 17.1065 42.0015 20.6031 42.0016 24.1802C42.0093 28.9548 40.1232 33.5377 36.757 36.9239C33.3907 40.31 28.819 42.223 24.0444 42.2434ZM24.0444 6.60882C20.5643 6.58972 17.1569 7.60427 14.254 9.52388C11.3512 11.4435 9.08359 14.1817 7.7387 17.3915C6.39381 20.6013 6.03218 24.1381 6.69962 27.5537C7.36707 30.9692 9.03355 34.1097 11.4878 36.5771C13.9421 39.0445 17.0737 40.7276 20.4856 41.4133C23.8976 42.0989 27.4363 41.756 30.6532 40.4282C33.8701 39.1005 36.6203 36.8475 38.5554 33.9549C40.4904 31.0623 41.5231 27.6603 41.5225 24.1802C41.5293 19.534 39.6931 15.0748 36.4165 11.7807C33.1399 8.48666 28.6905 6.62669 24.0444 6.60882Z" fill="url(#paint2_linear_1_6764)"/>
<path d="M29.099 48.359C28.6943 48.3579 28.291 48.3115 27.8965 48.2208C27.2686 48.0373 26.6785 47.7433 26.1539 47.3526C25.5783 46.9732 25.0317 46.6131 24.3726 46.5328C23.4659 46.4202 22.8036 46.8543 22.1026 47.3109C21.6948 47.5956 21.2584 47.837 20.8005 48.0311C20.1455 48.2743 19.4482 48.3825 18.7503 48.3494C18.0525 48.3162 17.3685 48.1423 16.7396 47.8381C15.5885 47.2915 14.7815 46.3849 14.1224 44.8962C13.8841 44.33 13.4685 43.8564 12.9379 43.5468C12.4074 43.2372 11.7906 43.1082 11.1804 43.1792C9.9908 43.295 8.60823 43.2821 7.26426 42.3336C6.66332 41.9044 6.1597 41.3532 5.78628 40.716C5.41286 40.0789 5.17805 39.3702 5.09718 38.6361C5.06333 38.2081 5.06333 37.778 5.09718 37.35C5.13898 36.4754 5.17756 35.7199 4.55702 34.9643C4.12841 34.5116 3.60908 34.1544 3.03298 33.9161C2.43641 33.6586 1.89167 33.2947 1.42536 32.8422C0.485292 31.8395 -0.0258255 30.5092 0.00100536 29.135C0.0278039 28.3992 0.206224 27.6767 0.525093 27.013C0.676504 26.7083 0.859725 26.4206 1.07169 26.1545C1.23057 25.9508 1.37456 25.7359 1.50253 25.5115C1.84325 24.884 1.92959 24.1495 1.74368 23.4601C1.61221 23.0504 1.40377 22.6696 1.12956 22.338C1.01703 22.1804 0.898061 22.0165 0.785527 21.8364C0.425051 21.2403 0.186651 20.5785 0.0841831 19.8894C-0.0182846 19.2004 0.0172225 18.4978 0.188643 17.8226C0.360064 17.1474 0.663984 16.513 1.08273 15.9563C1.50147 15.3995 2.02669 14.9316 2.62787 14.5796C2.84008 14.4606 3.0555 14.3674 3.27092 14.2581C3.63954 14.1204 3.98284 13.9226 4.28694 13.6729C4.71659 13.28 5.01325 12.7631 5.13576 12.1939C5.19843 11.8074 5.19843 11.4133 5.13576 11.0267C5.10405 10.7803 5.08581 10.5324 5.08111 10.284C5.0825 9.19006 5.42787 8.12424 6.06836 7.23738C6.70884 6.35051 7.612 5.6875 8.65003 5.34219C9.39751 5.11052 10.1871 5.04791 10.9618 5.15891C11.4831 5.24715 12.018 5.20855 12.5212 5.04638C13.1238 4.82242 13.6281 4.39322 13.9455 3.83423C14.0581 3.62565 14.159 3.41097 14.2478 3.19118C14.3765 2.86644 14.537 2.5552 14.7269 2.26198C15.1186 1.68455 15.6237 1.19284 16.2115 0.816785C16.7992 0.440727 17.4574 0.188173 18.1458 0.0744845C18.8343 -0.0392045 19.5387 -0.0116468 20.2161 0.155474C20.8936 0.322595 21.53 0.625792 22.0866 1.04661C23.8871 2.41953 25.2439 1.65107 25.7423 1.25881C26.7645 0.371872 28.095 -0.0765512 29.4455 0.0107152C30.7961 0.0979816 32.0578 0.713911 32.9573 1.72503C33.3009 2.14819 33.5884 2.61397 33.8126 3.1108C34.1566 3.79565 34.4813 4.44513 35.1598 4.83739C35.8382 5.22965 36.5584 5.18785 37.3204 5.15891C37.8509 5.10788 38.3856 5.12408 38.912 5.20714C39.6215 5.35539 40.292 5.6513 40.8797 6.07561C41.4674 6.49993 41.9593 7.04317 42.3234 7.67002C42.7053 8.33545 42.9379 9.07601 43.005 9.84032C43.0259 10.2 43.0108 10.5608 42.96 10.9174C42.9303 11.1575 42.9131 11.399 42.9085 11.6409C42.9085 13.2131 44.1143 13.9719 44.8377 14.2838C45.4996 14.5721 46.0969 14.9905 46.594 15.5141C47.0911 16.0377 47.4779 16.6559 47.7314 17.3319C47.9764 17.9798 48.087 18.6708 48.0566 19.3628C48.0262 20.0548 47.8554 20.7334 47.5546 21.3573C47.3976 21.6622 47.2124 21.9518 47.0015 22.2222C46.7967 22.4803 46.6199 22.7595 46.4742 23.055C46.2155 23.6389 46.1667 24.2944 46.336 24.9102C46.4705 25.3218 46.681 25.7046 46.9565 26.0387C47.0883 26.2252 47.2298 26.4149 47.3552 26.6271C47.6832 27.192 47.9014 27.8139 47.9983 28.4598C48.2034 29.8174 47.8712 31.2015 47.0723 32.3181C46.6415 32.918 46.0866 33.418 45.4454 33.7843C45.2368 33.897 45.0222 33.9979 44.8023 34.0865C44.4657 34.2136 44.1494 34.3891 43.8634 34.6074C43.3657 35.0288 43.0312 35.6113 42.9182 36.2536C42.8743 36.6108 42.8819 36.9724 42.9407 37.3275C42.975 37.5715 42.9943 37.8174 42.9985 38.0638C43.0024 38.7847 42.8555 39.4984 42.5672 40.1591C42.279 40.8198 41.8557 41.4129 41.3246 41.9004C40.7936 42.3879 40.1664 42.7589 39.4835 42.9897C38.8006 43.2204 38.0769 43.3058 37.359 43.2403C35.7514 43.0796 34.7868 43.4397 34.1663 44.4428C34.0243 44.685 33.8986 44.9363 33.7901 45.1952C33.6511 45.5337 33.4776 45.8569 33.2724 46.1598C32.8706 46.7262 32.3602 47.2071 31.7709 47.5745C30.9693 48.0767 30.0448 48.3481 29.099 48.359ZM24.0768 46.0248C24.1951 46.0244 24.3132 46.0319 24.4305 46.0472C25.1551 46.1861 25.8368 46.4934 26.4207 46.9443C26.898 47.3021 27.4346 47.5731 28.0058 47.7449C28.9152 47.9677 29.8707 47.9104 30.7468 47.5805C31.623 47.2505 32.379 46.6634 32.9155 45.8961C33.1023 45.6162 33.2596 45.3178 33.385 45.0055C33.5016 44.725 33.6381 44.4532 33.7933 44.1921C34.7257 42.6938 36.2369 42.6423 37.4458 42.7613C38.0958 42.82 38.7508 42.7422 39.3689 42.533C39.987 42.3238 40.5546 41.9877 41.0353 41.5464C41.516 41.105 41.8992 40.5681 42.1603 39.9701C42.4214 39.372 42.5547 38.726 42.5516 38.0734C42.5474 37.8453 42.5292 37.6177 42.497 37.3918C42.4357 36.989 42.4357 36.5792 42.497 36.1764C42.6292 35.424 43.0205 34.7416 43.603 34.2473C43.9249 33.9969 44.2826 33.7964 44.6641 33.6525C44.8671 33.5685 45.0656 33.4741 45.2589 33.3695C45.8391 33.0385 46.3404 32.5855 46.7282 32.0416C47.455 31.0291 47.7551 29.7718 47.5642 28.5402C47.4756 27.9562 47.277 27.3944 46.979 26.8844C46.8633 26.6914 46.7315 26.5082 46.6028 26.3313C46.2946 25.9488 46.0592 25.5128 45.9084 25.0452C45.7089 24.3204 45.7669 23.5489 46.0723 22.8621C46.2319 22.5331 46.4271 22.2226 46.6543 21.9361C46.8463 21.6907 47.0153 21.428 47.1591 21.1516C47.4311 20.5869 47.5856 19.9728 47.6132 19.3466C47.6408 18.7204 47.541 18.0952 47.3198 17.5087C47.0864 16.8928 46.7316 16.3301 46.2765 15.854C45.8214 15.3779 45.2752 14.9981 44.6705 14.7371C43.2558 14.1262 42.4488 12.9977 42.452 11.6473C42.4567 11.3882 42.4749 11.1296 42.5066 10.8724C42.5523 10.5477 42.5663 10.2192 42.5484 9.89176C42.4895 9.19894 42.2799 8.52736 41.9343 7.92403C41.6052 7.35181 41.1591 6.85552 40.6249 6.46767C40.0908 6.07982 39.4808 5.80914 38.8348 5.67336C38.3475 5.59946 37.8528 5.5865 37.3622 5.63477C36.5616 5.67657 35.7353 5.72158 34.9347 5.25859C34.1341 4.79559 33.7579 4.04965 33.3946 3.32943C33.1899 2.86854 32.9262 2.43621 32.6101 2.04333C31.7927 1.12707 30.647 0.570007 29.4215 0.492963C28.196 0.41592 26.9896 0.825105 26.0638 1.63178C24.8324 2.59636 23.2441 2.52241 21.8101 1.42922C21.3057 1.04739 20.7289 0.772345 20.1147 0.620855C19.5006 0.469366 18.862 0.444613 18.238 0.548118C17.6139 0.651622 17.0175 0.881208 16.4852 1.22286C15.9528 1.56451 15.4957 2.01107 15.1416 2.53527C14.9695 2.80056 14.8251 3.08285 14.7108 3.37767C14.6111 3.60274 14.5114 3.83424 14.3893 4.0593C14.0146 4.71856 13.419 5.2242 12.7077 5.48688C12.1345 5.67947 11.5228 5.72805 10.9264 5.62835C10.2601 5.53345 9.58124 5.58284 8.9357 5.77315C8.29016 5.96347 7.69305 6.29028 7.18481 6.73145C6.67656 7.17262 6.26905 7.71784 5.98986 8.33022C5.71067 8.94258 5.56633 9.60779 5.5666 10.2808C5.57107 10.512 5.58824 10.7428 5.61805 10.9721C5.69198 11.4095 5.69198 11.8562 5.61805 12.2936C5.47573 12.9642 5.12722 13.5735 4.62132 14.0362C4.28037 14.3223 3.89333 14.5485 3.47669 14.705C3.2677 14.7982 3.07157 14.8851 2.87866 14.9912C2.33532 15.3106 1.86074 15.7346 1.48241 16.2387C1.10408 16.7428 0.829513 17.3169 0.674611 17.9278C0.519708 18.5388 0.48755 19.1744 0.579992 19.7978C0.672434 20.4213 0.887648 21.0202 1.21316 21.5599C1.31605 21.7271 1.42858 21.8814 1.53469 22.0358C1.84167 22.4182 2.07498 22.8543 2.22274 23.3219C2.44027 24.1334 2.33903 24.9973 1.9398 25.7365C1.80058 25.9813 1.6437 26.2155 1.47038 26.4374C0.856541 27.2074 0.517098 28.1601 0.505802 29.1447C0.479672 30.3896 0.941217 31.5953 1.7919 32.5046C2.21888 32.9129 2.71684 33.2398 3.26127 33.4692C3.90026 33.737 4.47467 34.1382 4.94606 34.646C5.68557 35.543 5.63734 36.469 5.58911 37.3629C5.55858 37.7653 5.55858 38.1694 5.58911 38.5718C5.66156 39.2376 5.87441 39.8805 6.2136 40.458C6.55279 41.0355 7.01061 41.5345 7.55684 41.9221C8.52142 42.6037 9.58567 42.832 11.1451 42.6809C11.8571 42.5986 12.5765 42.7497 13.1952 43.1115C13.8139 43.4734 14.2984 44.0263 14.5757 44.6872C15.1834 46.0601 15.9165 46.8897 16.9582 47.3848C17.5277 47.661 18.1471 47.8191 18.7793 47.8495C19.4114 47.8799 20.0432 47.782 20.6365 47.5616C21.0633 47.38 21.4696 47.1537 21.8486 46.8864C22.4981 46.4685 23.1765 46.0248 24.0768 46.0248ZM24.0447 44.4171C12.9392 44.4171 3.90432 35.334 3.90432 24.161C3.90432 12.988 12.9392 3.90497 24.0447 3.90497C35.1501 3.90497 44.185 12.988 44.185 24.161C44.185 35.334 35.1501 44.43 24.0447 44.43V44.4171ZM24.0447 4.40655C13.206 4.40655 4.38982 13.271 4.38982 24.1675C4.38982 35.064 13.206 43.9284 24.0447 43.9284C34.8833 43.9284 43.6995 35.064 43.6995 24.1675C43.6995 13.271 34.8833 4.41941 24.0447 4.41941V4.40655Z" fill="url(#paint3_linear_1_6764)"/>
<path d="M24.3546 2.69296C24.4402 2.76514 24.5024 2.86106 24.5334 2.9686C24.5645 3.07614 24.5629 3.19046 24.5289 3.29711C24.495 3.40376 24.4302 3.49795 24.3427 3.56777C24.2552 3.63758 24.149 3.67988 24.0375 3.68932C23.9259 3.69877 23.8141 3.67493 23.7161 3.62082C23.6182 3.56671 23.5384 3.48476 23.487 3.38534C23.4356 3.28592 23.4149 3.17348 23.4274 3.06226C23.4399 2.95103 23.4851 2.84602 23.5573 2.76048C23.6541 2.6458 23.7924 2.57425 23.942 2.56159C24.0915 2.54893 24.2399 2.59619 24.3546 2.69296Z" fill="#1B2233"/>
<path d="M24.3546 44.7999C24.4402 44.8721 24.5024 44.968 24.5334 45.0755C24.5645 45.1831 24.5629 45.2974 24.5289 45.404C24.495 45.5107 24.4302 45.6049 24.3427 45.6747C24.2552 45.7445 24.149 45.7868 24.0375 45.7963C23.9259 45.8057 23.8141 45.7819 23.7161 45.7277C23.6182 45.6736 23.5384 45.5917 23.487 45.4923C23.4356 45.3929 23.4149 45.2804 23.4274 45.1692C23.4399 45.058 23.4851 44.9529 23.5573 44.8674C23.6541 44.7527 23.7924 44.6812 23.942 44.6685C24.0915 44.6559 24.2399 44.7031 24.3546 44.7999Z" fill="#1B2233"/>
<path d="M3.41952 23.1742C3.53462 23.2721 3.60631 23.4116 3.61896 23.5622C3.63161 23.7127 3.58419 23.8622 3.48704 23.978C3.43959 24.0354 3.38123 24.0828 3.31533 24.1174C3.24942 24.1521 3.1773 24.1733 3.10313 24.1799C3.02896 24.1865 2.95422 24.1783 2.88325 24.1558C2.81227 24.1332 2.74647 24.0969 2.68966 24.0487C2.57409 23.9512 2.50179 23.812 2.48853 23.6614C2.47528 23.5108 2.52216 23.3611 2.61893 23.2449C2.66666 23.1874 2.72531 23.1399 2.79148 23.1052C2.85766 23.0705 2.93005 23.0493 3.00449 23.0427C3.07892 23.0361 3.15392 23.0444 3.22515 23.0669C3.29639 23.0895 3.36245 23.1259 3.41952 23.1742Z" fill="#1B2233"/>
<path d="M3.98247 19.3286C4.06912 19.4008 4.13232 19.4972 4.16406 19.6055C4.19579 19.7138 4.19462 19.8291 4.1607 19.9367C4.12678 20.0443 4.06163 20.1394 3.97353 20.2099C3.88544 20.2804 3.77837 20.3231 3.66594 20.3327C3.55351 20.3422 3.4408 20.3181 3.3421 20.2634C3.24341 20.2087 3.1632 20.1259 3.11166 20.0255C3.06013 19.9251 3.03959 19.8117 3.05266 19.6996C3.06574 19.5876 3.11183 19.4819 3.18509 19.3961C3.23276 19.3389 3.29131 19.2918 3.35733 19.2574C3.42335 19.2231 3.49552 19.2021 3.56968 19.1959C3.64385 19.1896 3.71852 19.1981 3.78938 19.2208C3.86024 19.2436 3.92586 19.2802 3.98247 19.3286Z" fill="#1B2233"/>
<path d="M4.17243 28.2446C4.19603 28.3547 4.18645 28.4693 4.1449 28.5739C4.10336 28.6786 4.03171 28.7685 3.93902 28.8324C3.84634 28.8964 3.73678 28.9313 3.62421 28.933C3.51164 28.9346 3.40112 28.9028 3.30662 28.8416C3.21212 28.7804 3.1379 28.6926 3.09334 28.5892C3.04878 28.4858 3.0359 28.3715 3.0563 28.2608C3.07671 28.1501 3.12948 28.0479 3.20797 27.9672C3.28645 27.8865 3.38712 27.8308 3.49722 27.8074C3.64466 27.7768 3.79822 27.8055 3.92461 27.8873C4.051 27.9692 4.14004 28.0976 4.17243 28.2446Z" fill="#1B2233"/>
<path d="M5.92762 33.0899C5.95185 33.2 5.94287 33.3147 5.9018 33.4197C5.86074 33.5246 5.78945 33.615 5.69696 33.6794C5.60448 33.7437 5.49496 33.7792 5.38229 33.7813C5.26962 33.7834 5.15888 33.7519 5.06409 33.691C4.9693 33.6301 4.89473 33.5424 4.84984 33.439C4.80495 33.3357 4.79176 33.2213 4.81193 33.1104C4.8321 32.9996 4.88472 32.8972 4.96314 32.8163C5.04156 32.7353 5.14225 32.6795 5.25242 32.6559C5.32527 32.6398 5.40058 32.6383 5.47401 32.6514C5.54744 32.6646 5.61755 32.6921 5.6803 32.7325C5.74305 32.7728 5.79721 32.8251 5.83965 32.8865C5.8821 32.9478 5.91199 33.017 5.92762 33.0899Z" fill="#1B2233"/>
<path d="M8.9397 37.9676C8.9558 38.0407 8.95734 38.1162 8.94423 38.1898C8.93112 38.2635 8.90362 38.3338 8.86331 38.3968C8.82299 38.4598 8.77065 38.5143 8.70928 38.557C8.6479 38.5998 8.57871 38.63 8.50564 38.646C8.43299 38.6621 8.35788 38.6635 8.28466 38.6504C8.21143 38.6372 8.14156 38.6096 8.07906 38.5692C8.01657 38.5289 7.9627 38.4765 7.92057 38.4152C7.87845 38.3539 7.84891 38.2848 7.83365 38.212C7.8176 38.1394 7.81602 38.0643 7.82899 37.991C7.84196 37.9178 7.86922 37.8478 7.90923 37.7851C7.94924 37.7224 8.0012 37.6683 8.06215 37.6256C8.12311 37.583 8.19187 37.5528 8.26449 37.5368C8.33712 37.5207 8.41219 37.5191 8.48542 37.5321C8.55866 37.5451 8.62862 37.5723 8.69132 37.6124C8.75402 37.6524 8.80822 37.7043 8.85084 37.7653C8.89345 37.8262 8.92365 37.895 8.9397 37.9676Z" fill="#1B2233"/>
<path d="M13.2624 41.5719C13.2852 41.6812 13.2752 41.7948 13.2335 41.8984C13.1919 42.002 13.1205 42.091 13.0284 42.1541C12.9362 42.2173 12.8275 42.2517 12.7159 42.2532C12.6042 42.2546 12.4946 42.223 12.4009 42.1623C12.3071 42.1016 12.2334 42.0145 12.1891 41.9121C12.1448 41.8096 12.1317 41.6963 12.1517 41.5864C12.1716 41.4765 12.2236 41.375 12.3011 41.2946C12.3786 41.2142 12.4782 41.1585 12.5872 41.1346C12.7348 41.1031 12.8887 41.1315 13.0153 41.2135C13.1419 41.2955 13.2308 41.4244 13.2624 41.5719Z" fill="#1B2233"/>
<path d="M18.4864 44.0478C18.5098 44.1571 18.5003 44.2709 18.4592 44.3748C18.418 44.4787 18.347 44.5681 18.255 44.6317C18.1631 44.6953 18.0544 44.7302 17.9427 44.7321C17.8309 44.734 17.7211 44.7028 17.6271 44.6424C17.533 44.5819 17.459 44.495 17.4143 44.3925C17.3697 44.2901 17.3563 44.1767 17.376 44.0666C17.3957 43.9566 17.4476 43.8549 17.525 43.7743C17.6025 43.6937 17.702 43.6378 17.8112 43.6137C17.9583 43.5822 18.1118 43.6101 18.2384 43.6915C18.3649 43.7728 18.4541 43.9009 18.4864 44.0478Z" fill="#1B2233"/>
<path d="M5.17283 15.2583C5.28792 15.3562 5.35962 15.4957 5.37227 15.6463C5.38492 15.7969 5.33749 15.9463 5.24034 16.0621C5.19267 16.1192 5.13413 16.1664 5.06811 16.2007C5.00209 16.2351 4.92991 16.256 4.85575 16.2623C4.78158 16.2686 4.70692 16.2601 4.63606 16.2373C4.56521 16.2145 4.49957 16.1779 4.44296 16.1296C4.33629 16.0303 4.27182 15.8938 4.26281 15.7483C4.2538 15.6028 4.30095 15.4594 4.39455 15.3477C4.48814 15.236 4.62104 15.1644 4.76585 15.1478C4.91065 15.1311 5.05633 15.1707 5.17283 15.2583Z" fill="#1B2233"/>
<path d="M7.23833 11.58C7.32498 11.6523 7.38818 11.7487 7.41992 11.857C7.45165 11.9653 7.45047 12.0805 7.41655 12.1881C7.38263 12.2958 7.31749 12.3909 7.22939 12.4614C7.1413 12.5319 7.03423 12.5746 6.9218 12.5841C6.80937 12.5936 6.69666 12.5695 6.59796 12.5148C6.49927 12.4601 6.41905 12.3774 6.36751 12.277C6.31598 12.1766 6.29545 12.0632 6.30852 11.9511C6.3216 11.839 6.36769 11.7334 6.44095 11.6475C6.48862 11.5904 6.54716 11.5433 6.61318 11.5089C6.6792 11.4745 6.75138 11.4536 6.82554 11.4473C6.89971 11.441 6.97437 11.4495 7.04523 11.4723C7.11609 11.4951 7.18172 11.5317 7.23833 11.58Z" fill="#1B2233"/>
<path d="M9.74509 8.58347C9.86019 8.68139 9.93189 8.82087 9.94453 8.97146C9.95718 9.12205 9.90976 9.27152 9.81261 9.38728C9.76493 9.44443 9.70639 9.49156 9.64038 9.52593C9.57436 9.5603 9.50218 9.58124 9.42801 9.58751C9.35385 9.59379 9.27918 9.58529 9.20833 9.56251C9.13747 9.53973 9.07183 9.50313 9.01522 9.45481C8.90856 9.35547 8.84408 9.21898 8.83507 9.0735C8.82607 8.92803 8.87322 8.78464 8.96681 8.6729C9.06041 8.56117 9.19331 8.4896 9.33811 8.47296C9.48292 8.45632 9.62859 8.49587 9.74509 8.58347Z" fill="#1B2233"/>
<path d="M13.066 5.80246C13.1809 5.89982 13.2525 6.03875 13.2652 6.18881C13.2778 6.33887 13.2305 6.48784 13.1335 6.60306C13.0861 6.66045 13.0277 6.70784 12.9618 6.7425C12.8959 6.77716 12.8238 6.7984 12.7496 6.80498C12.6754 6.81156 12.6007 6.80335 12.5297 6.78083C12.4588 6.75831 12.393 6.72193 12.3361 6.6738C12.2206 6.57632 12.1483 6.43708 12.135 6.28647C12.1218 6.13587 12.1686 5.98614 12.2654 5.86998C12.3134 5.81273 12.3722 5.76553 12.4385 5.73112C12.5048 5.69671 12.5772 5.67576 12.6516 5.66948C12.7261 5.66321 12.801 5.67172 12.8721 5.69454C12.9432 5.71737 13.0091 5.75404 13.066 5.80246Z" fill="#1B2233"/>
<path d="M16.7597 4.03691C16.8748 4.13484 16.9465 4.27432 16.9591 4.42491C16.9718 4.5755 16.9244 4.72497 16.8272 4.84073C16.7795 4.89788 16.721 4.945 16.655 4.97937C16.589 5.01374 16.5168 5.03467 16.4426 5.04095C16.3685 5.04723 16.2938 5.03874 16.2229 5.01596C16.1521 4.99318 16.0864 4.95657 16.0298 4.90824C15.9681 4.86182 15.9164 4.80331 15.878 4.73628C15.8396 4.66924 15.8153 4.5951 15.8065 4.51835C15.7976 4.4416 15.8045 4.36386 15.8267 4.28986C15.8489 4.21587 15.886 4.14716 15.9356 4.08794C15.9852 4.02872 16.0463 3.98021 16.1153 3.94539C16.1842 3.91056 16.2596 3.89014 16.3367 3.88537C16.4138 3.88059 16.491 3.89156 16.5638 3.91762C16.6365 3.94367 16.7032 3.98426 16.7597 4.03691Z" fill="#1B2233"/>
<path d="M20.557 3.02108C20.6439 3.09303 20.7075 3.18918 20.7396 3.29733C20.7718 3.40547 20.771 3.52072 20.7375 3.62845C20.704 3.73617 20.6393 3.83152 20.5515 3.90235C20.4636 3.97319 20.3568 4.01633 20.2444 4.0263C20.132 4.03627 20.0192 4.01262 19.9203 3.95834C19.8214 3.90407 19.7409 3.82162 19.6889 3.72148C19.637 3.62133 19.616 3.508 19.6286 3.39589C19.6412 3.28378 19.6868 3.17794 19.7597 3.09182C19.8071 3.03444 19.8655 2.98704 19.9314 2.95238C19.9973 2.91772 20.0694 2.89648 20.1436 2.8899C20.2177 2.88332 20.2925 2.89153 20.3635 2.91404C20.4344 2.93656 20.5002 2.97295 20.557 3.02108Z" fill="#1B2233"/>
<path d="M44.6761 23.1742C44.561 23.2721 44.4893 23.4116 44.4766 23.5622C44.464 23.7127 44.5114 23.8622 44.6085 23.978C44.656 24.0354 44.7144 24.0828 44.7803 24.1174C44.8462 24.1521 44.9183 24.1733 44.9925 24.1799C45.0666 24.1865 45.1414 24.1783 45.2123 24.1558C45.2833 24.1332 45.3491 24.0969 45.4059 24.0487C45.5215 23.9512 45.5938 23.812 45.6071 23.6614C45.6203 23.5108 45.5734 23.3611 45.4767 23.2449C45.4289 23.1874 45.3703 23.1399 45.3041 23.1052C45.2379 23.0705 45.1655 23.0493 45.0911 23.0427C45.0167 23.0361 44.9417 23.0444 44.8704 23.0669C44.7992 23.0895 44.7331 23.1259 44.6761 23.1742Z" fill="#1B2233"/>
<path d="M44.1089 19.3291C44.0222 19.4013 43.959 19.4977 43.9273 19.606C43.8955 19.7143 43.8967 19.8296 43.9306 19.9372C43.9645 20.0448 44.0297 20.1399 44.1178 20.2104C44.2059 20.2809 44.3129 20.3236 44.4254 20.3331C44.5378 20.3427 44.6505 20.3185 44.7492 20.2639C44.8479 20.2092 44.9281 20.1264 44.9797 20.026C45.0312 19.9256 45.0517 19.8122 45.0387 19.7001C45.0256 19.588 44.9795 19.4824 44.9062 19.3966C44.8586 19.3394 44.8 19.2923 44.734 19.2579C44.668 19.2236 44.5958 19.2026 44.5217 19.1963C44.4475 19.1901 44.3728 19.1986 44.302 19.2213C44.2311 19.2441 44.1655 19.2807 44.1089 19.3291Z" fill="#1B2233"/>
<path d="M43.9326 28.2446C43.909 28.3547 43.9186 28.4693 43.9601 28.5739C44.0016 28.6786 44.0733 28.7685 44.166 28.8324C44.2587 28.8964 44.3682 28.9313 44.4808 28.933C44.5934 28.9346 44.7039 28.9028 44.7984 28.8416C44.8929 28.7804 44.9671 28.6926 45.0116 28.5892C45.0562 28.4858 45.0691 28.3715 45.0487 28.2608C45.0283 28.1501 44.9755 28.0479 44.897 27.9672C44.8185 27.8865 44.7179 27.8308 44.6078 27.8074C44.4603 27.7768 44.3068 27.8055 44.1804 27.8873C44.054 27.9692 43.965 28.0976 43.9326 28.2446Z" fill="#1B2233"/>
<path d="M42.1637 33.0899C42.1395 33.2 42.1485 33.3147 42.1895 33.4197C42.2306 33.5246 42.3019 33.615 42.3944 33.6794C42.4869 33.7437 42.5964 33.7792 42.709 33.7813C42.8217 33.7834 42.9324 33.7519 43.0272 33.691C43.122 33.6301 43.1966 33.5424 43.2415 33.439C43.2864 33.3357 43.2996 33.2213 43.2794 33.1104C43.2592 32.9996 43.2066 32.8972 43.1282 32.8163C43.0498 32.7353 42.9491 32.6795 42.8389 32.6559C42.766 32.6398 42.6907 32.6383 42.6173 32.6514C42.5439 32.6646 42.4738 32.6921 42.411 32.7325C42.3483 32.7728 42.2941 32.8251 42.2517 32.8865C42.2092 32.9478 42.1793 33.017 42.1637 33.0899Z" fill="#1B2233"/>
<path d="M39.152 37.9676C39.1359 38.0407 39.1344 38.1162 39.1475 38.1898C39.1606 38.2635 39.1881 38.3338 39.2284 38.3968C39.2687 38.4598 39.321 38.5143 39.3824 38.557C39.4438 38.5998 39.513 38.63 39.5861 38.646C39.6587 38.6621 39.7338 38.6635 39.807 38.6504C39.8803 38.6372 39.9501 38.6096 40.0126 38.5692C40.0751 38.5289 40.129 38.4765 40.1711 38.4152C40.2132 38.3539 40.2428 38.2848 40.2581 38.212C40.2741 38.1394 40.2757 38.0643 40.2627 37.991C40.2497 37.9178 40.2225 37.8478 40.1825 37.7851C40.1425 37.7224 40.0905 37.6683 40.0296 37.6256C39.9686 37.583 39.8998 37.5528 39.8272 37.5368C39.7546 37.5207 39.6795 37.5191 39.6063 37.5321C39.533 37.5451 39.4631 37.5723 39.4004 37.6124C39.3377 37.6524 39.2835 37.7043 39.2409 37.7653C39.1983 37.8262 39.1681 37.895 39.152 37.9676Z" fill="#1B2233"/>
<path d="M34.8303 41.5719C34.8075 41.6812 34.8175 41.7948 34.8592 41.8984C34.9008 42.002 34.9722 42.091 35.0643 42.1541C35.1565 42.2173 35.2652 42.2517 35.3769 42.2532C35.4885 42.2546 35.5981 42.223 35.6919 42.1623C35.7856 42.1016 35.8593 42.0145 35.9036 41.9121C35.9479 41.8096 35.961 41.6963 35.941 41.5864C35.9211 41.4765 35.8691 41.375 35.7916 41.2946C35.7141 41.2142 35.6145 41.1585 35.5055 41.1346C35.3579 41.1031 35.204 41.1315 35.0774 41.2135C34.9508 41.2955 34.8619 41.4244 34.8303 41.5719Z" fill="#1B2233"/>
<path d="M29.6063 44.0478C29.5829 44.1571 29.5924 44.2709 29.6335 44.3748C29.6747 44.4787 29.7457 44.5681 29.8377 44.6317C29.9296 44.6953 30.0383 44.7302 30.15 44.7321C30.2618 44.734 30.3716 44.7028 30.4656 44.6424C30.5597 44.5819 30.6337 44.495 30.6784 44.3925C30.723 44.2901 30.7364 44.1767 30.7167 44.0666C30.697 43.9566 30.6451 43.8549 30.5677 43.7743C30.4902 43.6937 30.3907 43.6378 30.2815 43.6137C30.1344 43.5822 29.9809 43.6101 29.8543 43.6915C29.7278 43.7728 29.6386 43.9009 29.6063 44.0478Z" fill="#1B2233"/>
<path d="M42.9202 15.2581C42.8051 15.356 42.7334 15.4955 42.7208 15.6461C42.7081 15.7967 42.7555 15.9462 42.8527 16.0619C42.9004 16.1191 42.9589 16.1662 43.0249 16.2006C43.0909 16.2349 43.1631 16.2559 43.2373 16.2621C43.3115 16.2684 43.3861 16.2599 43.457 16.2372C43.5278 16.2144 43.5935 16.1778 43.6501 16.1294C43.7118 16.083 43.7635 16.0245 43.8019 15.9575C43.8403 15.8904 43.8646 15.8163 43.8734 15.7395C43.8823 15.6628 43.8754 15.585 43.8532 15.5111C43.831 15.4371 43.7939 15.3684 43.7443 15.3091C43.6947 15.2499 43.6336 15.2014 43.5646 15.1666C43.4957 15.1318 43.4203 15.1113 43.3432 15.1066C43.2661 15.1018 43.1889 15.1128 43.1161 15.1388C43.0434 15.1649 42.9767 15.2055 42.9202 15.2581Z" fill="#1B2233"/>
<path d="M40.853 11.58C40.7663 11.6523 40.7031 11.7487 40.6714 11.857C40.6397 11.9653 40.6408 12.0805 40.6748 12.1881C40.7087 12.2958 40.7738 12.3909 40.8619 12.4614C40.95 12.5319 41.0571 12.5746 41.1695 12.5841C41.282 12.5936 41.3947 12.5695 41.4934 12.5148C41.5921 12.4601 41.6723 12.3774 41.7238 12.277C41.7754 12.1766 41.7959 12.0632 41.7828 11.9511C41.7697 11.839 41.7236 11.7334 41.6504 11.6475C41.6027 11.5904 41.5442 11.5433 41.4781 11.5089C41.4121 11.4745 41.34 11.4536 41.2658 11.4473C41.1916 11.441 41.117 11.4495 41.0461 11.4723C40.9752 11.4951 40.9096 11.5317 40.853 11.58Z" fill="#1B2233"/>
<path d="M38.3479 8.58329C38.2328 8.68122 38.1611 8.82069 38.1485 8.97128C38.1358 9.12187 38.1833 9.27135 38.2804 9.3871C38.3281 9.44426 38.3866 9.49139 38.4527 9.52576C38.5187 9.56013 38.5908 9.58106 38.665 9.58734C38.7392 9.59362 38.8138 9.58512 38.8847 9.56234C38.9556 9.53956 39.0212 9.50295 39.0778 9.45463C39.1396 9.4082 39.1912 9.34969 39.2296 9.28265C39.268 9.21562 39.2923 9.14147 39.3012 9.06472C39.31 8.98798 39.3031 8.91024 39.2809 8.83625C39.2587 8.76225 39.2217 8.69355 39.1721 8.63432C39.1225 8.5751 39.0613 8.5266 38.9923 8.49177C38.9234 8.45695 38.8481 8.43653 38.771 8.43175C38.6939 8.42698 38.6166 8.43795 38.5439 8.464C38.4711 8.49006 38.4045 8.53064 38.3479 8.58329Z" fill="#1B2233"/>
<path d="M35.0176 5.80246C34.9027 5.89982 34.8311 6.03875 34.8184 6.18881C34.8058 6.33887 34.8531 6.48784 34.9501 6.60306C34.9975 6.66045 35.0559 6.70784 35.1218 6.7425C35.1877 6.77716 35.2598 6.7984 35.334 6.80498C35.4081 6.81156 35.4829 6.80335 35.5539 6.78083C35.6248 6.75831 35.6906 6.72193 35.7474 6.6738C35.863 6.57632 35.9353 6.43708 35.9486 6.28647C35.9618 6.13587 35.915 5.98614 35.8182 5.86998C35.7702 5.81273 35.7114 5.76553 35.6451 5.73112C35.5788 5.69671 35.5064 5.67576 35.4319 5.66948C35.3575 5.66321 35.2826 5.67172 35.2115 5.69454C35.1404 5.71737 35.0745 5.75404 35.0176 5.80246Z" fill="#1B2233"/>
<path d="M31.3323 4.03691C31.2172 4.13484 31.1455 4.27432 31.1329 4.42491C31.1202 4.5755 31.1676 4.72497 31.2648 4.84073C31.3125 4.89788 31.371 4.945 31.437 4.97937C31.503 5.01374 31.5752 5.03467 31.6494 5.04095C31.7235 5.04723 31.7982 5.03874 31.8691 5.01596C31.9399 4.99318 32.0056 4.95657 32.0622 4.90824C32.1239 4.86182 32.1756 4.80331 32.214 4.73628C32.2524 4.66924 32.2767 4.5951 32.2855 4.51835C32.2944 4.4416 32.2875 4.36386 32.2653 4.28986C32.2431 4.21587 32.206 4.14716 32.1564 4.08794C32.1068 4.02872 32.0457 3.98021 31.9767 3.94539C31.9078 3.91056 31.8324 3.89014 31.7553 3.88537C31.6782 3.88059 31.601 3.89156 31.5282 3.91762C31.4555 3.94367 31.3888 3.98426 31.3323 4.03691Z" fill="#1B2233"/>
<path d="M27.5343 3.02108C27.4474 3.09303 27.3838 3.18918 27.3517 3.29733C27.3196 3.40547 27.3203 3.52072 27.3538 3.62845C27.3873 3.73617 27.4521 3.83152 27.5399 3.90235C27.6277 3.97319 27.7346 4.01633 27.8469 4.0263C27.9593 4.03627 28.0721 4.01262 28.171 3.95834C28.2699 3.90407 28.3505 3.82162 28.4024 3.72148C28.4544 3.62133 28.4754 3.508 28.4628 3.39589C28.4502 3.28378 28.4045 3.17794 28.3317 3.09182C28.2842 3.03444 28.2259 2.98704 28.1599 2.95238C28.094 2.91772 28.0219 2.89648 27.9478 2.8899C27.8736 2.88332 27.7988 2.89153 27.7279 2.91404C27.6569 2.93656 27.5911 2.97295 27.5343 3.02108Z" fill="#1B2233"/>
<path d="M24.0937 30.712L31.704 35.3368L29.6844 26.6203L36.4081 20.7556L27.554 19.9993L24.0937 11.7788L20.6334 19.9993L11.7793 20.7556L18.503 26.6203L16.4834 35.3368L24.0937 30.712Z" fill="url(#paint4_linear_1_6764)"/>
<defs>
<linearGradient id="paint0_linear_1_6764" x1="24.0444" y1="4.1748" x2="24.0444" y2="44.1854" gradientUnits="userSpaceOnUse">
<stop stop-color="white"/>
<stop offset="0.526042" stop-color="#F8F8F8"/>
<stop offset="1" stop-color="white"/>
</linearGradient>
<linearGradient id="paint1_linear_1_6764" x1="0.241432" y1="24.1806" x2="47.8464" y2="24.1806" gradientUnits="userSpaceOnUse">
<stop stop-color="#BA973B"/>
<stop offset="0.12" stop-color="#A57D24"/>
<stop offset="0.26" stop-color="#F1DD80"/>
<stop offset="0.37" stop-color="#F1DD80"/>
<stop offset="0.47" stop-color="#DABF64"/>
<stop offset="0.6" stop-color="#C3A348"/>
<stop offset="0.73" stop-color="#B28E34"/>
<stop offset="0.85" stop-color="#A88128"/>
<stop offset="0.97" stop-color="#A57D24"/>
</linearGradient>
<linearGradient id="paint2_linear_1_6764" x1="6.08078" y1="24.1802" x2="42.008" y2="24.1802" gradientUnits="userSpaceOnUse">
<stop stop-color="#BA973B"/>
<stop offset="0.12" stop-color="#A57D24"/>
<stop offset="0.26" stop-color="#F1DD80"/>
<stop offset="0.37" stop-color="#F1DD80"/>
<stop offset="0.47" stop-color="#DABF64"/>
<stop offset="0.6" stop-color="#C3A348"/>
<stop offset="0.73" stop-color="#B28E34"/>
<stop offset="0.85" stop-color="#A88128"/>
<stop offset="0.97" stop-color="#A57D24"/>
</linearGradient>
<linearGradient id="paint3_linear_1_6764" x1="0.00100536" y1="24.1803" x2="48.0883" y2="24.1803" gradientUnits="userSpaceOnUse">
<stop offset="0.03" stop-color="#A57D24"/>
<stop offset="0.15" stop-color="#A88128"/>
<stop offset="0.27" stop-color="#B28E34"/>
<stop offset="0.4" stop-color="#C3A348"/>
<stop offset="0.53" stop-color="#DABF64"/>
<stop offset="0.63" stop-color="#F1DD80"/>
<stop offset="0.74" stop-color="#F1DD80"/>
<stop offset="0.88" stop-color="#A57D24"/>
<stop offset="1" stop-color="#BA973B"/>
</linearGradient>
<linearGradient id="paint4_linear_1_6764" x1="24.0937" y1="11.7788" x2="24.0937" y2="35.3368" gradientUnits="userSpaceOnUse">
<stop offset="0.119792" stop-color="#C3A348"/>
<stop offset="0.505208" stop-color="#ECD775"/>
<stop offset="0.786458" stop-color="#DABF64"/>
</linearGradient>
</defs>
</svg>
