<svg width="30" height="29" viewBox="0 0 30 29" fill="none" xmlns="http://www.w3.org/2000/svg">
<path d="M16.5397 0.00178401C17.5978 -0.00227617 18.6559 0.00835793 19.7137 0.033683L19.995 0.0438326C20.3197 0.0554322 20.6402 0.0699317 21.0273 0.0873311C22.5701 0.159829 23.6227 0.403421 24.5463 0.761558C25.5033 1.12985 26.3095 1.62863 27.1157 2.4348C27.8528 3.15921 28.4233 4.03547 28.7875 5.00266C29.1456 5.92628 29.3892 6.9804 29.4617 8.52314C29.4791 8.90883 29.4936 9.23072 29.5052 9.55551L29.5139 9.8368C29.5396 10.8941 29.5508 11.9517 29.5472 13.0093L29.5487 14.091V15.9904C29.5523 17.0485 29.5411 18.1066 29.5153 19.1643L29.5066 19.4456C29.495 19.7704 29.4805 20.0908 29.4631 20.478C29.3906 22.0207 29.1441 23.0734 28.7875 23.997C28.4245 24.9652 27.8538 25.8422 27.1157 26.5663C26.3906 27.3034 25.5139 27.8738 24.5463 28.2381C23.6227 28.5963 22.5701 28.8399 21.0273 28.9123C20.6402 28.9297 20.3197 28.9442 19.995 28.9558L19.7137 28.9645C18.6559 28.9903 17.5978 29.0014 16.5397 28.9979L15.4581 28.9993H13.5601C12.502 29.0029 11.4439 28.9918 10.3861 28.966L10.1048 28.9573C9.76064 28.9448 9.41651 28.9303 9.07247 28.9138C7.52973 28.8413 6.47706 28.5948 5.55199 28.2381C4.58442 27.8747 3.708 27.3041 2.98413 26.5663C2.24617 25.8418 1.67515 24.9649 1.31089 23.997C0.952751 23.0734 0.709159 22.0207 0.636662 20.478C0.620513 20.1339 0.606014 19.7898 0.593163 19.4456L0.585914 19.1643C0.559182 18.1066 0.547098 17.0485 0.549665 15.9904V13.0093C0.545618 11.9517 0.556252 10.8941 0.581564 9.8368L0.591713 9.55551C0.603313 9.23072 0.617812 8.90883 0.635212 8.52314C0.707709 6.97895 0.951301 5.92773 1.30944 5.00266C1.67392 4.035 2.24605 3.15897 2.98558 2.43625C3.70895 1.69787 4.58482 1.12633 5.55199 0.761558C6.47706 0.403421 7.52828 0.159829 9.07247 0.0873311L10.1048 0.0438326L10.3861 0.0365831C11.4434 0.00986456 12.501 -0.00221966 13.5586 0.000334167L16.5397 0.00178401ZM15.0492 7.25154C14.0886 7.23795 13.1349 7.41542 12.2435 7.77362C11.3521 8.13182 10.5408 8.66361 9.85667 9.3381C9.17258 10.0126 8.62937 10.8163 8.2586 11.7025C7.88783 12.5888 7.69689 13.5399 7.69689 14.5006C7.69689 15.4612 7.88783 16.4123 8.2586 17.2986C8.62937 18.1848 9.17258 18.9886 9.85667 19.663C10.5408 20.3375 11.3521 20.8693 12.2435 21.2275C13.1349 21.5857 14.0886 21.7632 15.0492 21.7496C16.9719 21.7496 18.8159 20.9858 20.1755 19.6262C21.5351 18.2666 22.2989 16.4226 22.2989 14.4998C22.2989 12.5771 21.5351 10.7331 20.1755 9.37349C18.8159 8.0139 16.9719 7.25154 15.0492 7.25154ZM15.0492 10.1514C15.627 10.1408 16.2011 10.2454 16.7381 10.4591C17.275 10.6729 17.764 10.9915 18.1764 11.3963C18.5888 11.8011 18.9164 12.2841 19.1401 12.8169C19.3638 13.3498 19.4791 13.9219 19.4792 14.4998C19.4793 15.0777 19.3642 15.6499 19.1407 16.1828C18.9172 16.7158 18.5897 17.1988 18.1774 17.6038C17.7651 18.0088 17.2763 18.3275 16.7394 18.5414C16.2025 18.7554 15.6284 18.8601 15.0506 18.8497C13.897 18.8497 12.7906 18.3914 11.9748 17.5757C11.1591 16.7599 10.7008 15.6535 10.7008 14.4998C10.7008 13.3462 11.1591 12.2398 11.9748 11.424C12.7906 10.6083 13.897 10.15 15.0506 10.15L15.0492 10.1514ZM22.6614 5.07661C22.1936 5.09533 21.7513 5.29432 21.4269 5.6319C21.1026 5.96948 20.9215 6.41946 20.9215 6.8876C20.9215 7.35574 21.1026 7.80572 21.4269 8.1433C21.7513 8.48088 22.1936 8.67987 22.6614 8.69859C23.1421 8.69859 23.6031 8.50764 23.943 8.16774C24.2829 7.82784 24.4739 7.36684 24.4739 6.88615C24.4739 6.40546 24.2829 5.94446 23.943 5.60456C23.6031 5.26466 23.1421 5.07371 22.6614 5.07371V5.07661Z" fill="black"/>
</svg>
