<svg width="25" height="29" viewBox="0 0 25 29" fill="none" xmlns="http://www.w3.org/2000/svg">
<path d="M21.676 6.20134C21.484 6.10011 21.2972 5.98914 21.1161 5.86885C20.5898 5.51409 20.1073 5.09613 19.679 4.62394C18.6059 3.37259 18.2052 2.1032 18.0586 1.21527H18.0636C17.941 0.476828 17.9916 0 18.0004 0H13.1153V19.2574C13.1153 19.5152 13.1153 19.7716 13.1052 20.0242C13.1052 20.0551 13.1014 20.0835 13.1001 20.1183C13.1001 20.1312 13.1001 20.1466 13.0963 20.1608V20.1724C13.045 20.8632 12.828 21.5305 12.4643 22.1157C12.1007 22.7009 11.6015 23.1859 11.0108 23.5282C10.3946 23.8857 9.69753 24.0732 8.98852 24.0721C6.71342 24.0721 4.86806 22.1802 4.86806 19.8438C4.86806 17.506 6.71342 15.6142 8.98852 15.6142C9.41952 15.6142 9.848 15.6838 10.2575 15.8204L10.2638 10.748C9.02013 10.5844 7.75667 10.6854 6.5532 11.0447C5.34973 11.4041 4.23238 12.0139 3.27169 12.8357C2.42972 13.5813 1.72183 14.471 1.17986 15.4647C0.973841 15.8268 0.195251 17.2844 0.101719 19.6479C0.0423132 20.9882 0.437928 22.38 0.626256 22.9535V22.9664C0.743803 23.304 1.20388 24.4587 1.95213 25.4317C2.55554 26.2127 3.26847 26.8987 4.06798 27.4679V27.455L4.07935 27.4679C6.44293 29.1045 9.06562 28.9976 9.06562 28.9976C9.51938 28.9783 11.0399 28.9976 12.7665 28.1638C14.6813 27.2385 15.7708 25.8608 15.7708 25.8608C16.4674 25.0375 17.0214 24.0992 17.4089 23.0862C17.8513 21.9006 17.9979 20.4804 17.9979 19.9134V9.69507C18.0573 9.73116 18.8473 10.2634 18.8473 10.2634C18.8473 10.2634 19.9848 11.007 21.7582 11.4903C23.0297 11.8344 24.7449 11.9078 24.7449 11.9078V6.96298C24.1445 7.02999 22.9248 6.83668 21.6747 6.20263L21.676 6.20134Z" fill="black"/>
</svg>
