<svg width="26" height="27" viewBox="0 0 26 27" fill="none" xmlns="http://www.w3.org/2000/svg">
<path d="M25.8291 24.6239C24.1786 21.5058 21.6015 19.0763 18.5126 17.7264C20.0487 16.4862 21.1834 14.7572 21.7559 12.7843C22.3284 10.8114 22.3098 8.69464 21.7026 6.73378C21.0954 4.77293 19.9304 3.06744 18.3727 1.85889C16.815 0.650336 14.9436 0 13.0235 0C11.1033 0 9.23188 0.650336 7.6742 1.85889C6.11651 3.06744 4.95156 4.77293 4.34436 6.73378C3.73717 8.69464 3.71851 10.8114 4.29102 12.7843C4.86354 14.7572 5.99822 16.4862 7.53432 17.7264C4.44538 19.0763 1.86827 21.5058 0.217868 24.6239C0.115603 24.8009 0.0474434 24.9982 0.0174421 25.2041C-0.0125592 25.4101 -0.00379028 25.6204 0.0432279 25.8226C0.090246 26.0248 0.174553 26.2148 0.291138 26.3812C0.407722 26.5477 0.554204 26.6872 0.721875 26.7914C0.889545 26.8957 1.07498 26.9626 1.26716 26.9882C1.45934 27.0138 1.65434 26.9976 1.84056 26.9404C2.02678 26.8833 2.20043 26.7864 2.35118 26.6556C2.50193 26.5247 2.6267 26.3626 2.71808 26.1788C4.89929 22.1204 8.75132 19.6999 13.0235 19.6999C17.2956 19.6999 21.1476 22.1217 23.3288 26.1788C23.5269 26.5216 23.841 26.768 24.2047 26.866C24.5685 26.9641 24.9534 26.906 25.2781 26.704C25.6028 26.5021 25.8418 26.1721 25.9446 25.784C26.0475 25.3958 26.006 24.9798 25.8291 24.6239ZM6.76391 9.85188C6.76391 8.51921 7.13103 7.21647 7.81884 6.10839C8.50664 5.00032 9.48425 4.13668 10.628 3.62669C11.7718 3.1167 13.0304 2.98326 14.2446 3.24325C15.4589 3.50324 16.5742 4.14498 17.4496 5.08732C18.325 6.02966 18.9212 7.23028 19.1627 8.53734C19.4043 9.84441 19.2803 11.1992 18.8065 12.4304C18.3328 13.6617 17.5305 14.714 16.5011 15.4544C15.4717 16.1948 14.2615 16.59 13.0235 16.59C11.3639 16.5879 9.77288 15.8774 8.5994 14.6142C7.42592 13.351 6.76582 11.6383 6.76391 9.85188Z" fill="#626262"/>
</svg>
