<svg width="23" height="19" viewBox="0 0 23 19" fill="none" xmlns="http://www.w3.org/2000/svg">
<mask id="mask0_1_7296" style="mask-type:luminance" maskUnits="userSpaceOnUse" x="0" y="0" width="23" height="19">
<path d="M13.3636 17.4848H2.54545C2.13557 17.4848 1.74248 17.322 1.45265 17.0322C1.16282 16.7424 1 16.3493 1 15.9394V2.54545C1 2.13557 1.16282 1.74248 1.45265 1.45265C1.74248 1.16282 2.13557 1 2.54545 1H20.0606C20.4705 1 20.8636 1.16282 21.1534 1.45265C21.4432 1.74248 21.6061 2.13557 21.6061 2.54545V8.75767M19.0303 18V11.8182M19.0303 11.8182L16.4545 14.3939M19.0303 11.8182L21.6061 14.3939" stroke="white" stroke-width="2" stroke-linecap="round" stroke-linejoin="round"/>
<path d="M1 2.54545C1 2.13557 1.16282 1.74248 1.45265 1.45265C1.74248 1.16282 2.13557 1 2.54545 1H20.0606C20.4705 1 20.8636 1.16282 21.1534 1.45265C21.4432 1.74248 21.6061 2.13557 21.6061 2.54545V7.18182H1V2.54545Z" fill="white" stroke="white" stroke-width="2"/>
<path d="M3.06049 4.09079C3.06049 3.52177 3.52177 3.06049 4.09079 3.06049C4.65981 3.06049 5.12109 3.52177 5.12109 4.09079C5.12109 4.65981 4.65981 5.12109 4.09079 5.12109C3.52177 5.12109 3.06049 4.65981 3.06049 4.09079Z" fill="black"/>
<path d="M6.15228 4.09079C6.15228 3.52177 6.61357 3.06049 7.18259 3.06049C7.75161 3.06049 8.21289 3.52177 8.21289 4.09079C8.21289 4.65981 7.75161 5.12109 7.18259 5.12109C6.61357 5.12109 6.15228 4.65981 6.15228 4.09079Z" fill="black"/>
</mask>
<g mask="url(#mask0_1_7296)">
<path d="M-1.06055 -3.12109H23.6667V21.6062H-1.06055V-3.12109Z" fill="black"/>
</g>
</svg>
