<svg width="30" height="29" viewBox="0 0 30 29" fill="none" xmlns="http://www.w3.org/2000/svg">
<path d="M27.1252 6.70585C22.7873 -0.000221679 13.9308 -1.99392 7.06243 2.17472C0.374835 6.34336 -1.79411 15.4056 2.54378 22.1117L2.90528 22.6554L1.45931 28.0928L6.88168 26.6428L7.42392 27.0053C9.77361 28.274 12.3041 28.999 14.8345 28.999C17.5457 28.999 20.2569 28.274 22.6066 26.8241C29.2942 22.4742 31.2824 13.5932 27.1252 6.70585ZM23.3295 20.6617C22.6066 21.7492 21.7028 22.4742 20.4376 22.6554C19.7146 22.6554 18.8109 23.0179 15.196 21.568C12.1233 20.118 9.59287 17.7618 7.78541 15.0431C6.70094 13.7744 6.1587 12.1432 5.97795 10.512C5.97795 9.06204 6.52019 7.79332 7.42392 6.8871C7.78541 6.52461 8.1469 6.34336 8.50839 6.34336H9.41212C9.77361 6.34336 10.1351 6.34336 10.3159 7.06834C10.6773 7.97457 11.5811 10.1495 11.5811 10.3308C11.7618 10.512 11.7618 10.8745 11.5811 11.0557C11.7618 11.4182 11.5811 11.7807 11.4003 11.962C11.2196 12.1432 11.0388 12.5057 10.8581 12.6869C10.4966 12.8682 10.3159 13.2307 10.4966 13.5932C11.2196 14.6806 12.1233 15.7681 13.027 16.6743C14.1115 17.5806 15.196 18.3055 16.4612 18.8493C16.8227 19.0305 17.1842 19.0305 17.3649 18.668C17.5457 18.3055 18.4494 17.3993 18.8109 17.0368C19.1724 16.6743 19.3531 16.6743 19.7146 16.8556L22.6066 18.3055C22.9681 18.4868 23.3295 18.668 23.5103 18.8493C23.691 19.393 23.691 20.118 23.3295 20.6617Z" fill="black"/>
</svg>
